<?xml version="1.0" standalone="no"?>
<!DOCTYPE svg PUBLIC "-//W3C//DTD SVG 20010904//EN"
 "http://www.w3.org/TR/2001/REC-SVG-20010904/DTD/svg10.dtd">
<svg version="1.0" xmlns="http://www.w3.org/2000/svg"
 width="1280.000000pt" height="720.000000pt" viewBox="0 0 1280.000000 720.000000"
 preserveAspectRatio="xMidYMid meet">
<metadata>
Created by potrace 1.15, written by Peter Selinger 2001-2017
</metadata>
<g transform="translate(0.000000,720.000000) scale(0.100000,-0.100000)"
fill="#000000" stroke="none">
<path d="M35 7134 c-25 -46 -35 -76 -33 -99 3 -30 7 -26 60 66 53 94 55 99 33
99 -18 0 -31 -14 -60 -66z"/>
<path d="M183 7158 c-14 -24 -62 -106 -105 -184 l-78 -141 1 -654 c0 -561 2
-648 14 -614 7 22 32 97 54 168 56 173 126 363 202 543 83 198 287 604 393
782 l85 142 -270 0 -269 0 -27 -42z"/>
<path d="M763 7088 c-209 -339 -416 -772 -561 -1168 -93 -255 -203 -633 -201
-688 1 -21 2 -23 6 -7 20 81 149 452 208 600 179 444 459 977 708 1348 l19 27
-55 0 -55 0 -69 -112z"/>
<path d="M933 7048 c-219 -331 -528 -938 -686 -1349 -67 -173 -154 -448 -208
-654 l-39 -150 0 -1355 0 -1356 40 -148 c176 -651 460 -1271 862 -1884 l100
-152 415 0 c409 0 415 0 402 19 -319 450 -532 836 -712 1292 -217 548 -342
1096 -388 1694 -17 224 -18 1044 -1 1205 28 274 88 604 153 850 50 192 239
748 294 870 138 303 236 504 290 595 68 116 355 563 395 615 15 19 30 41 34
48 6 9 -81 12 -421 12 l-428 0 -102 -152z"/>
<path d="M1947 7143 c-52 -68 -289 -432 -401 -615 -43 -72 -139 -260 -217
-428 -122 -264 -152 -339 -245 -618 -104 -315 -170 -539 -161 -549 3 -2 8 11
12 29 4 18 30 101 57 183 144 439 381 931 633 1315 151 232 354 498 504 662
34 36 61 69 61 72 0 3 -45 6 -99 6 l-100 0 -44 -57z"/>
<path d="M2213 7098 c-725 -818 -1185 -1781 -1357 -2838 -55 -341 -84 -771
-66 -990 84 -1014 455 -1998 1064 -2825 85 -116 250 -318 324 -397 l45 -48
593 0 594 0 -87 82 c-234 223 -361 372 -559 653 -263 375 -318 479 -549 1050
-122 301 -168 462 -229 800 -64 351 -78 596 -66 1125 11 468 25 621 86 935 76
392 186 712 397 1156 143 302 336 600 571 884 98 118 348 376 455 468 l53 47
-589 0 -589 0 -91 -102z"/>
<path d="M3485 7101 c-425 -380 -776 -840 -1007 -1321 -216 -451 -322 -761
-403 -1183 -28 -145 -29 -193 -2 -85 29 115 108 351 169 503 78 196 249 542
333 674 396 625 895 1108 1510 1460 l89 51 -289 0 -290 0 -110 -99z"/>
<path d="M4220 7136 c-382 -210 -665 -420 -961 -716 -236 -235 -368 -396 -544
-660 -391 -587 -644 -1325 -706 -2056 -10 -113 -10 -177 -1 -297 109 -1376
925 -2659 2135 -3356 l89 -51 1932 0 1932 0 89 51 c194 110 444 286 628 439
81 67 404 418 521 564 173 217 423 662 529 941 73 193 164 524 207 753 25 132
22 171 -5 62 -60 -249 -185 -549 -372 -892 -241 -443 -618 -861 -1072 -1187
-496 -356 -1044 -567 -1676 -643 -134 -16 -581 -16 -720 0 -790 93 -1460 408
-1985 932 -272 271 -446 517 -634 900 -157 318 -240 566 -291 863 -36 212 -45
378 -48 837 -2 389 1 474 16 583 60 437 191 818 409 1187 207 352 516 693 864
957 472 357 1073 599 1655 667 751 88 1565 -88 2209 -479 344 -208 698 -514
924 -799 308 -386 517 -765 673 -1216 58 -168 61 -151 11 70 -238 1061 -960
2001 -1970 2561 l-88 49 -1818 0 -1817 0 -115 -64z"/>
<path d="M8150 7189 c8 -5 73 -45 144 -89 419 -260 826 -630 1117 -1015 448
-593 709 -1261 769 -1970 6 -71 12 -339 13 -595 2 -401 0 -482 -16 -590 -49
-343 -154 -744 -269 -1028 -114 -283 -361 -709 -530 -914 -92 -113 -343 -393
-416 -466 -144 -141 -369 -310 -678 -509 -15 -9 141 -12 704 -12 l724 -1 170
167 c341 336 560 624 818 1073 274 479 440 877 549 1322 125 507 176 1163 120
1543 -118 807 -445 1592 -928 2230 -202 267 -479 563 -716 763 l-120 102 -735
-1 c-468 0 -730 -4 -720 -10z"/>
<path d="M9775 7157 c589 -499 1062 -1155 1361 -1886 35 -86 63 -151 64 -145
0 6 -18 71 -40 145 -194 659 -599 1375 -1056 1869 l-56 60 -162 0 -161 0 50
-43z"/>
<path d="M10181 7171 c13 -16 57 -68 97 -115 381 -444 727 -1062 918 -1641
115 -351 229 -916 259 -1285 3 -41 13 -149 23 -240 21 -206 23 -753 4 -940
-61 -588 -192 -1086 -421 -1605 -186 -421 -491 -906 -788 -1258 l-74 -87 499
0 499 0 80 108 c369 494 683 1102 893 1729 124 374 177 595 235 993 59 400 68
497 68 735 0 191 -5 261 -37 525 -20 168 -45 359 -57 425 -154 904 -525 1755
-1097 2518 l-126 167 -499 0 -500 0 24 -29z"/>
<path d="M11260 7196 c0 -3 43 -63 96 -133 359 -477 642 -1003 851 -1578 59
-164 43 -90 -27 124 -156 476 -439 1063 -724 1504 l-56 87 -70 0 c-39 0 -70
-2 -70 -4z"/>
<path d="M11500 7194 c0 -4 25 -46 55 -95 171 -271 426 -763 550 -1064 248
-599 405 -1292 446 -1970 15 -243 5 -947 -16 -1175 -95 -1036 -395 -1911 -977
-2858 l-20 -32 352 2 351 3 91 155 c115 196 294 545 392 763 l76 168 0 2476 0
2475 -51 122 c-113 271 -347 718 -500 957 l-51 79 -349 0 c-192 0 -349 -3
-349 -6z"/>
<path d="M12305 7173 c93 -141 304 -523 376 -681 23 -51 44 -91 46 -89 11 12
-233 514 -343 707 -38 65 -55 86 -73 88 l-25 4 19 -29z"/>
<path d="M12430 7194 c0 -3 26 -53 59 -112 81 -147 188 -363 251 -507 29 -66
55 -122 56 -124 2 -2 4 165 4 372 l0 377 -185 0 c-102 0 -185 -3 -185 -6z"/>
<path d="M6315 6950 c-254 -26 -541 -88 -775 -168 -691 -236 -1309 -708 -1702
-1302 -251 -379 -397 -762 -471 -1233 -7 -47 3 -23 48 110 187 555 547 1053
1019 1411 651 493 1405 680 2201 546 259 -43 394 -85 646 -199 718 -324 1264
-954 1473 -1700 63 -224 87 -432 85 -735 -1 -118 2 -240 5 -270 11 -79 -11
-350 -39 -504 -46 -247 -119 -464 -231 -683 -119 -234 -255 -422 -449 -622
-221 -228 -411 -363 -730 -521 -408 -203 -591 -253 -1066 -295 -229 -20 -442
-3 -704 55 -71 16 -164 36 -205 45 -180 38 -358 111 -635 262 -281 152 -581
393 -786 631 -269 311 -440 607 -580 1007 -36 103 -38 107 -33 55 18 -173 102
-469 194 -685 54 -127 152 -323 226 -451 318 -553 829 -1009 1425 -1273 324
-143 697 -238 1068 -272 166 -15 560 -6 716 15 681 96 1245 346 1783 793 254
211 452 422 634 676 200 279 424 735 527 1072 77 254 113 457 137 775 l18 235
-23 150 c-98 658 -369 1267 -809 1817 -281 350 -704 689 -1127 903 -337 170
-673 271 -1110 336 -160 23 -578 34 -730 19z"/>
<path d="M5925 6274 c-16 -2 -70 -9 -120 -15 -920 -113 -1776 -744 -2191
-1614 -201 -422 -299 -899 -254 -1235 85 -638 332 -1172 758 -1644 285 -315
729 -600 1204 -772 158 -58 554 -123 788 -131 159 -5 196 -3 410 26 327 44
374 56 585 143 407 169 686 347 931 594 148 148 345 418 445 608 83 158 238
646 253 801 l6 60 -18 -55 c-145 -421 -409 -812 -731 -1081 -329 -275 -745
-457 -1161 -508 -109 -14 -391 -14 -500 0 -308 38 -600 141 -835 296 -188 124
-408 323 -540 488 -203 254 -342 596 -385 950 -13 106 -5 687 11 810 84 642
481 1186 1085 1488 173 86 337 140 539 178 140 27 447 37 596 20 523 -60 1007
-301 1379 -687 243 -252 433 -568 546 -909 31 -93 31 -52 -1 117 -90 486 -334
939 -704 1308 -136 136 -242 222 -405 331 -190 126 -494 272 -707 337 -85 26
-312 68 -475 87 -114 13 -422 19 -509 9z"/>
<path d="M6440 5614 c-276 -24 -490 -81 -715 -189 -420 -202 -746 -531 -915
-924 -78 -181 -106 -262 -131 -380 -27 -129 -24 -139 14 -46 155 374 455 697
812 875 132 66 249 106 406 142 91 20 130 23 319 23 172 0 232 -4 300 -19 409
-88 726 -297 943 -619 104 -155 203 -416 232 -613 22 -149 16 -583 -9 -693
-78 -344 -268 -635 -556 -853 -273 -206 -701 -334 -1007 -301 -203 23 -493
103 -644 178 -366 184 -681 541 -813 920 -34 96 -34 47 0 -103 111 -494 381
-874 844 -1188 206 -139 429 -227 715 -281 127 -24 464 -29 610 -8 731 102
1339 549 1679 1235 85 172 134 303 175 472 48 199 56 273 42 382 -51 389 -223
820 -449 1126 -81 108 -320 345 -438 432 -303 224 -624 359 -981 413 -104 15
-351 26 -433 19z"/>
<path d="M6076 5040 c-536 -61 -994 -379 -1254 -870 -105 -200 -179 -463 -168
-600 31 -373 230 -782 511 -1048 220 -209 422 -313 770 -394 127 -29 155 -32
300 -33 117 0 182 5 244 18 109 23 303 87 386 127 245 117 500 372 630 629 29
58 95 231 95 249 0 4 -20 -28 -44 -70 -100 -176 -248 -345 -382 -438 -134 -93
-343 -179 -504 -209 -157 -29 -358 -21 -515 19 -97 25 -280 112 -392 186 -237
158 -404 399 -469 680 -53 231 -32 516 55 732 146 363 456 617 861 707 114 25
344 31 459 11 372 -65 661 -273 882 -637 60 -99 58 -76 -8 91 -52 132 -92 205
-171 310 -201 269 -526 465 -871 524 -118 20 -312 27 -415 16z"/>
<path d="M6230 4650 c-281 -61 -519 -212 -690 -437 -92 -122 -164 -305 -196
-501 -55 -341 69 -707 319 -938 128 -119 358 -245 522 -286 77 -19 116 -22
265 -22 150 0 186 3 255 22 257 72 416 162 570 323 179 188 288 396 340 650
35 169 -12 377 -132 584 -199 345 -476 548 -828 609 -123 22 -316 20 -425 -4z"/>
<path d="M11342 2622 c-104 -473 -277 -898 -582 -1432 -242 -422 -448 -696
-769 -1023 l-164 -167 135 0 135 0 90 108 c564 672 934 1404 1112 2200 39 173
87 450 79 457 -2 2 -18 -62 -36 -143z"/>
<path d="M2070 2556 c0 -36 72 -341 107 -451 19 -60 80 -220 135 -354 212
-521 267 -623 530 -993 204 -287 324 -426 545 -630 l138 -128 274 0 274 0 -99
63 c-473 296 -863 657 -1205 1114 -280 374 -520 835 -655 1263 -24 74 -43 126
-44 116z"/>
<path d="M12251 1837 c-118 -361 -284 -745 -464 -1072 -128 -232 -315 -527
-427 -675 -33 -44 -60 -81 -60 -84 0 -3 31 -6 69 -6 l69 0 79 127 c272 436
470 851 630 1318 54 159 166 545 160 552 -2 1 -27 -70 -56 -160z"/>
<path d="M971 1969 c-1 -24 111 -378 170 -537 129 -346 323 -732 529 -1057 99
-155 248 -365 264 -371 7 -3 49 -4 93 -2 l81 3 -85 100 c-428 505 -804 1164
-1019 1785 -18 52 -33 88 -33 79z"/>
<path d="M1 993 l-1 -692 86 -150 85 -151 265 0 c145 0 264 1 264 3 0 2 -29
55 -65 118 -248 431 -467 958 -599 1439 l-35 125 0 -692z"/>
<path d="M170 1378 c0 -12 90 -268 133 -378 105 -269 286 -645 425 -880 l67
-115 58 -3 58 -3 -49 73 c-232 344 -477 797 -627 1163 -55 133 -65 156 -65
143z"/>
<path d="M12765 633 c-44 -103 -196 -415 -259 -530 l-56 -103 175 0 175 0 0
350 c0 193 -1 350 -3 350 -1 0 -16 -30 -32 -67z"/>
<path d="M12608 507 c-67 -132 -213 -397 -275 -500 -3 -5 2 -7 12 -5 22 4 69
86 200 348 106 210 157 321 152 326 -1 1 -41 -75 -89 -169z"/>
<path d="M0 121 c0 -33 48 -121 66 -121 12 0 7 15 -22 67 -45 83 -44 81 -44
54z"/>
</g>
</svg>
